<?xml version='1.0' encoding='utf-8'?>
<svg height="273.30mm" viewBox="0.0 0.0 673.90 273.30" width="673.90mm" xmlns="http://www.w3.org/2000/svg" xmlns:cc="http://creativecommons.org/ns#" xmlns:dc="http://purl.org/dc/elements/1.1/" xmlns:inkscape="http://www.inkscape.org/namespaces/inkscape" xmlns:rdf="http://www.w3.org/1999/02/22-rdf-syntax-ns#" xmlns:svg="http://www.w3.org/2000/svg" xmlns:xlink="http://www.w3.org/1999/xlink">
<!--
ABox - A simple Box


This box is kept simple on purpose. If you need more features have a look at the UniversalBox.


Created with Boxes.py (https://boxes.hackerspace-bamberg.de/)
Creation date: 2025-02-19 07:29:15
Command line (remove spaces between dashes): boxes ABox - -FingerJoint_finger=10 - -FingerJoint_space=10 - -x=460 - -y=180 - -h=20 - -outside=0
Url: https://boxes.hackerspace-bamberg.de/ABox?FingerJoint_style=rectangular&FingerJoint_surroundingspaces=2.0&FingerJoint_bottom_lip=0.0&FingerJoint_edge_width=1.0&FingerJoint_extra_length=0.0&FingerJoint_finger=10&FingerJoint_play=0.0&FingerJoint_space=10&FingerJoint_width=1.0&Lid_handle=none&Lid_style=none&Lid_handle_height=8.0&Lid_height=4.0&Lid_play=0.1&x=460&y=180&h=20&outside=0&bottom_edge=h&thickness=3.0&format=svg&tabs=0.0&qr_code=0&debug=0&labels=0&labels=1&reference=100.0&inner_corners=loop&burn=0.1&language=en&render=2
Url short: https://boxes.hackerspace-bamberg.de/ABox?FingerJoint_finger=10&FingerJoint_space=10&x=460&y=180&h=20&outside=0
SettingsUrl: https://boxes.hackerspace-bamberg.de/ABox?FingerJoint_style=rectangular&FingerJoint_surroundingspaces=2.0&FingerJoint_bottom_lip=0.0&FingerJoint_edge_width=1.0&FingerJoint_extra_length=0.0&FingerJoint_finger=10&FingerJoint_play=0.0&FingerJoint_space=10&FingerJoint_width=1.0&Lid_handle=none&Lid_style=none&Lid_handle_height=8.0&Lid_height=4.0&Lid_play=0.1&x=460&y=180&h=20&outside=0&bottom_edge=h&thickness=3.0&format=svg&tabs=0.0&qr_code=0&debug=0&labels=0&labels=1&reference=100.0&inner_corners=loop&burn=0.1&language=en&render=2
SettingsUrl short: https://boxes.hackerspace-bamberg.de/ABox?FingerJoint_finger=10&FingerJoint_space=10&x=460&y=180&h=20&outside=0
-->
<title>ABox</title>
<metadata>
<rdf:RDF><cc:Work>
<dc:title>Box - ABox</dc:title>
<dc:date>2025-02-19 07:29:15</dc:date>
<dc:source>https://boxes.hackerspace-bamberg.de/ABox?FingerJoint_style=rectangular&amp;FingerJoint_surroundingspaces=2.0&amp;FingerJoint_bottom_lip=0.0&amp;FingerJoint_edge_width=1.0&amp;FingerJoint_extra_length=0.0&amp;FingerJoint_finger=10&amp;FingerJoint_play=0.0&amp;FingerJoint_space=10&amp;FingerJoint_width=1.0&amp;Lid_handle=none&amp;Lid_style=none&amp;Lid_handle_height=8.0&amp;Lid_height=4.0&amp;Lid_play=0.1&amp;x=460&amp;y=180&amp;h=20&amp;outside=0&amp;bottom_edge=h&amp;thickness=3.0&amp;format=svg&amp;tabs=0.0&amp;qr_code=0&amp;debug=0&amp;labels=0&amp;labels=1&amp;reference=100.0&amp;inner_corners=loop&amp;burn=0.1&amp;language=en&amp;render=2</dc:source>
<dc:source>https://boxes.hackerspace-bamberg.de/ABox?FingerJoint_finger=10&amp;FingerJoint_space=10&amp;x=460&amp;y=180&amp;h=20&amp;outside=0</dc:source>
<dc:description>A simple Box

This box is kept simple on purpose. If you need more features have a look at the UniversalBox.

Created with Boxes.py (https://boxes.hackerspace-bamberg.de/)
Command line: boxes ABox --FingerJoint_style=rectangular --FingerJoint_surroundingspaces=2.0 --FingerJoint_bottom_lip=0.0 --FingerJoint_edge_width=1.0 --FingerJoint_extra_length=0.0 --FingerJoint_finger=10 --FingerJoint_play=0.0 --FingerJoint_space=10 --FingerJoint_width=1.0 --Lid_handle=none --Lid_style=none --Lid_handle_height=8.0 --Lid_height=4.0 --Lid_play=0.1 --x=460 --y=180 --h=20 --outside=0 --bottom_edge=h --thickness=3.0 --format=svg --tabs=0.0 --qr_code=0 --debug=0 --labels=0 --labels=1 --reference=100.0 --inner_corners=loop --burn=0.1
Command line short: boxes ABox --FingerJoint_finger=10 --FingerJoint_space=10 --x=460 --y=180 --h=20 --outside=0
Url: https://boxes.hackerspace-bamberg.de/ABox?FingerJoint_style=rectangular&amp;FingerJoint_surroundingspaces=2.0&amp;FingerJoint_bottom_lip=0.0&amp;FingerJoint_edge_width=1.0&amp;FingerJoint_extra_length=0.0&amp;FingerJoint_finger=10&amp;FingerJoint_play=0.0&amp;FingerJoint_space=10&amp;FingerJoint_width=1.0&amp;Lid_handle=none&amp;Lid_style=none&amp;Lid_handle_height=8.0&amp;Lid_height=4.0&amp;Lid_play=0.1&amp;x=460&amp;y=180&amp;h=20&amp;outside=0&amp;bottom_edge=h&amp;thickness=3.0&amp;format=svg&amp;tabs=0.0&amp;qr_code=0&amp;debug=0&amp;labels=0&amp;labels=1&amp;reference=100.0&amp;inner_corners=loop&amp;burn=0.1&amp;language=en&amp;render=2
Url short: https://boxes.hackerspace-bamberg.de/ABox?FingerJoint_finger=10&amp;FingerJoint_space=10&amp;x=460&amp;y=180&amp;h=20&amp;outside=0
SettingsUrl: https://boxes.hackerspace-bamberg.de/ABox?FingerJoint_style=rectangular&amp;FingerJoint_surroundingspaces=2.0&amp;FingerJoint_bottom_lip=0.0&amp;FingerJoint_edge_width=1.0&amp;FingerJoint_extra_length=0.0&amp;FingerJoint_finger=10&amp;FingerJoint_play=0.0&amp;FingerJoint_space=10&amp;FingerJoint_width=1.0&amp;Lid_handle=none&amp;Lid_style=none&amp;Lid_handle_height=8.0&amp;Lid_height=4.0&amp;Lid_play=0.1&amp;x=460&amp;y=180&amp;h=20&amp;outside=0&amp;bottom_edge=h&amp;thickness=3.0&amp;format=svg&amp;tabs=0.0&amp;qr_code=0&amp;debug=0&amp;labels=0&amp;labels=1&amp;reference=100.0&amp;inner_corners=loop&amp;burn=0.1&amp;language=en&amp;render=2
SettingsUrl short: https://boxes.hackerspace-bamberg.de/ABox?FingerJoint_finger=10&amp;FingerJoint_space=10&amp;x=460&amp;y=180&amp;h=20&amp;outside=0
</dc:description>
</cc:Work></rdf:RDF></metadata>
<g id="p-0" style="fill:none;stroke-linecap:round;stroke-linejoin:round;">
  <path d="M 10.100 263.300 H 110.100 V 253.300 H 10.100 V 263.300 Z" stroke="rgb(0,0,0)" stroke-width="0.20" />
  <text dominant-baseline="hanging" font-size="6px" style="font-family: sans-serif ; font-weight: normal; font-style: normal; fill: rgb(255,0,0)" text-anchor="middle" transform="matrix( 1.000 0.000 0.000 1.000 60.100 255.300 )">100.0mm, burn:0.10mm</text>
</g>
<g id="p-1" style="fill:none;stroke-linecap:round;stroke-linejoin:round;">
  <path d="M 63.100 248.400 H 48.200 C 48.100 248.400 48.200 248.500 48.200 248.400 V 245.600 C 48.200 245.500 48.100 245.600 48.200 245.600 H 78.000 C 78.100 245.600 78.000 245.500 78.000 245.600 V 248.400 C 78.000 248.500 78.100 248.400 78.000 248.400 H 63.100 Z" stroke="rgb(0,0,255)" stroke-width="0.20" />
  <path d="M 123.100 248.400 H 108.200 C 108.100 248.400 108.200 248.500 108.200 248.400 V 245.600 C 108.200 245.500 108.100 245.600 108.200 245.600 H 138.000 C 138.100 245.600 138.000 245.500 138.000 245.600 V 248.400 C 138.000 248.500 138.100 248.400 138.000 248.400 H 123.100 Z" stroke="rgb(0,0,255)" stroke-width="0.20" />
  <path d="M 183.100 248.400 H 168.200 C 168.100 248.400 168.200 248.500 168.200 248.400 V 245.600 C 168.200 245.500 168.100 245.600 168.200 245.600 H 198.000 C 198.100 245.600 198.000 245.500 198.000 245.600 V 248.400 C 198.000 248.500 198.100 248.400 198.000 248.400 H 183.100 Z" stroke="rgb(0,0,255)" stroke-width="0.20" />
  <path d="M 243.100 248.400 H 228.200 C 228.100 248.400 228.200 248.500 228.200 248.400 V 245.600 C 228.200 245.500 228.100 245.600 228.200 245.600 H 258.000 C 258.100 245.600 258.000 245.500 258.000 245.600 V 248.400 C 258.000 248.500 258.100 248.400 258.000 248.400 H 243.100 Z" stroke="rgb(0,0,255)" stroke-width="0.20" />
  <path d="M 303.100 248.400 H 288.200 C 288.100 248.400 288.200 248.500 288.200 248.400 V 245.600 C 288.200 245.500 288.100 245.600 288.200 245.600 H 318.000 C 318.100 245.600 318.000 245.500 318.000 245.600 V 248.400 C 318.000 248.500 318.100 248.400 318.000 248.400 H 303.100 Z" stroke="rgb(0,0,255)" stroke-width="0.20" />
  <path d="M 363.100 248.400 H 348.200 C 348.100 248.400 348.200 248.500 348.200 248.400 V 245.600 C 348.200 245.500 348.100 245.600 348.200 245.600 H 378.000 C 378.100 245.600 378.000 245.500 378.000 245.600 V 248.400 C 378.000 248.500 378.100 248.400 378.000 248.400 H 363.100 Z" stroke="rgb(0,0,255)" stroke-width="0.20" />
  <path d="M 423.100 248.400 H 408.200 C 408.100 248.400 408.200 248.500 408.200 248.400 V 245.600 C 408.200 245.500 408.100 245.600 408.200 245.600 H 438.000 C 438.100 245.600 438.000 245.500 438.000 245.600 V 248.400 C 438.000 248.500 438.100 248.400 438.000 248.400 H 423.100 Z" stroke="rgb(0,0,255)" stroke-width="0.20" />
  <path d="M 13.100 251.600 H 473.100 H 476.100 C 476.155 251.600 476.200 251.555 476.200 251.500 V 245.000 C 476.200 244.945 476.155 244.900 476.100 244.900 H 473.200 C 473.100 244.900 473.200 245.000 473.200 244.900 V 232.100 C 473.200 232.000 473.100 232.100 473.200 232.100 H 476.100 C 476.155 232.100 476.200 232.055 476.200 232.000 V 225.500 C 476.200 225.445 476.155 225.400 476.100 225.400 H 473.100 H 13.100 H 10.100 C 10.045 225.400 10.000 225.445 10.000 225.500 V 232.000 C 10.000 232.055 10.045 232.100 10.100 232.100 H 13.000 C 13.100 232.100 13.000 232.000 13.000 232.100 V 244.900 C 13.000 245.000 13.100 244.900 13.000 244.900 H 10.100 C 10.045 244.900 10.000 244.945 10.000 245.000 V 251.500 C 10.000 251.555 10.045 251.600 10.100 251.600 H 13.100 Z" stroke="rgb(0,0,0)" stroke-width="0.20" />
</g>
<g id="p-2" style="fill:none;stroke-linecap:round;stroke-linejoin:round;">
  <path d="M 63.100 220.700 H 48.200 C 48.100 220.700 48.200 220.800 48.200 220.700 V 217.900 C 48.200 217.800 48.100 217.900 48.200 217.900 H 78.000 C 78.100 217.900 78.000 217.800 78.000 217.900 V 220.700 C 78.000 220.800 78.100 220.700 78.000 220.700 H 63.100 Z" stroke="rgb(0,0,255)" stroke-width="0.20" />
  <path d="M 123.100 220.700 H 108.200 C 108.100 220.700 108.200 220.800 108.200 220.700 V 217.900 C 108.200 217.800 108.100 217.900 108.200 217.900 H 138.000 C 138.100 217.900 138.000 217.800 138.000 217.900 V 220.700 C 138.000 220.800 138.100 220.700 138.000 220.700 H 123.100 Z" stroke="rgb(0,0,255)" stroke-width="0.20" />
  <path d="M 183.100 220.700 H 168.200 C 168.100 220.700 168.200 220.800 168.200 220.700 V 217.900 C 168.200 217.800 168.100 217.900 168.200 217.900 H 198.000 C 198.100 217.900 198.000 217.800 198.000 217.900 V 220.700 C 198.000 220.800 198.100 220.700 198.000 220.700 H 183.100 Z" stroke="rgb(0,0,255)" stroke-width="0.20" />
  <path d="M 243.100 220.700 H 228.200 C 228.100 220.700 228.200 220.800 228.200 220.700 V 217.900 C 228.200 217.800 228.100 217.900 228.200 217.900 H 258.000 C 258.100 217.900 258.000 217.800 258.000 217.900 V 220.700 C 258.000 220.800 258.100 220.700 258.000 220.700 H 243.100 Z" stroke="rgb(0,0,255)" stroke-width="0.20" />
  <path d="M 303.100 220.700 H 288.200 C 288.100 220.700 288.200 220.800 288.200 220.700 V 217.900 C 288.200 217.800 288.100 217.900 288.200 217.900 H 318.000 C 318.100 217.900 318.000 217.800 318.000 217.900 V 220.700 C 318.000 220.800 318.100 220.700 318.000 220.700 H 303.100 Z" stroke="rgb(0,0,255)" stroke-width="0.20" />
  <path d="M 363.100 220.700 H 348.200 C 348.100 220.700 348.200 220.800 348.200 220.700 V 217.900 C 348.200 217.800 348.100 217.900 348.200 217.900 H 378.000 C 378.100 217.900 378.000 217.800 378.000 217.900 V 220.700 C 378.000 220.800 378.100 220.700 378.000 220.700 H 363.100 Z" stroke="rgb(0,0,255)" stroke-width="0.20" />
  <path d="M 423.100 220.700 H 408.200 C 408.100 220.700 408.200 220.800 408.200 220.700 V 217.900 C 408.200 217.800 408.100 217.900 408.200 217.900 H 438.000 C 438.100 217.900 438.000 217.800 438.000 217.900 V 220.700 C 438.000 220.800 438.100 220.700 438.000 220.700 H 423.100 Z" stroke="rgb(0,0,255)" stroke-width="0.20" />
  <path d="M 13.100 223.900 H 473.100 H 476.100 C 476.155 223.900 476.200 223.855 476.200 223.800 V 217.300 C 476.200 217.245 476.155 217.200 476.100 217.200 H 473.200 C 473.100 217.200 473.200 217.300 473.200 217.200 V 204.400 C 473.200 204.300 473.100 204.400 473.200 204.400 H 476.100 C 476.155 204.400 476.200 204.355 476.200 204.300 V 197.800 C 476.200 197.745 476.155 197.700 476.100 197.700 H 473.100 H 13.100 H 10.100 C 10.045 197.700 10.000 197.745 10.000 197.800 V 204.300 C 10.000 204.355 10.045 204.400 10.100 204.400 H 13.000 C 13.100 204.400 13.000 204.300 13.000 204.400 V 217.200 C 13.000 217.300 13.100 217.200 13.000 217.200 H 10.100 C 10.045 217.200 10.000 217.245 10.000 217.300 V 223.800 C 10.000 223.855 10.045 223.900 10.100 223.900 H 13.100 Z" stroke="rgb(0,0,0)" stroke-width="0.20" />
</g>
<g id="p-3" style="fill:none;stroke-linecap:round;stroke-linejoin:round;">
  <path d="M 13.100 193.200 H 48.000 C 48.100 193.200 48.000 193.100 48.000 193.200 V 196.100 C 48.000 196.155 48.045 196.200 48.100 196.200 H 78.100 C 78.155 196.200 78.200 196.155 78.200 196.100 V 193.200 C 78.200 193.100 78.100 193.200 78.200 193.200 H 108.000 C 108.100 193.200 108.000 193.100 108.000 193.200 V 196.100 C 108.000 196.155 108.045 196.200 108.100 196.200 H 138.100 C 138.155 196.200 138.200 196.155 138.200 196.100 V 193.200 C 138.200 193.100 138.100 193.200 138.200 193.200 H 168.000 C 168.100 193.200 168.000 193.100 168.000 193.200 V 196.100 C 168.000 196.155 168.045 196.200 168.100 196.200 H 198.100 C 198.155 196.200 198.200 196.155 198.200 196.100 V 193.200 C 198.200 193.100 198.100 193.200 198.200 193.200 H 228.000 C 228.100 193.200 228.000 193.100 228.000 193.200 V 196.100 C 228.000 196.155 228.045 196.200 228.100 196.200 H 258.100 C 258.155 196.200 258.200 196.155 258.200 196.100 V 193.200 C 258.200 193.100 258.100 193.200 258.200 193.200 H 288.000 C 288.100 193.200 288.000 193.100 288.000 193.200 V 196.100 C 288.000 196.155 288.045 196.200 288.100 196.200 H 318.100 C 318.155 196.200 318.200 196.155 318.200 196.100 V 193.200 C 318.200 193.100 318.100 193.200 318.200 193.200 H 348.000 C 348.100 193.200 348.000 193.100 348.000 193.200 V 196.100 C 348.000 196.155 348.045 196.200 348.100 196.200 H 378.100 C 378.155 196.200 378.200 196.155 378.200 196.100 V 193.200 C 378.200 193.100 378.100 193.200 378.200 193.200 H 408.000 C 408.100 193.200 408.000 193.100 408.000 193.200 V 196.100 C 408.000 196.155 408.045 196.200 408.100 196.200 H 438.100 C 438.155 196.200 438.200 196.155 438.200 196.100 V 193.200 C 438.200 193.100 438.100 193.200 438.200 193.200 H 473.100 C 473.155 193.200 473.200 193.155 473.200 193.100 V 148.200 C 473.200 148.100 473.100 148.200 473.200 148.200 H 476.100 C 476.155 148.200 476.200 148.155 476.200 148.100 V 118.100 C 476.200 118.045 476.155 118.000 476.100 118.000 H 473.200 C 473.100 118.000 473.200 118.100 473.200 118.000 V 88.200 C 473.200 88.100 473.100 88.200 473.200 88.200 H 476.100 C 476.155 88.200 476.200 88.155 476.200 88.100 V 58.100 C 476.200 58.045 476.155 58.000 476.100 58.000 H 473.200 C 473.100 58.000 473.200 58.100 473.200 58.000 V 13.100 C 473.200 13.045 473.155 13.000 473.100 13.000 H 438.200 C 438.100 13.000 438.200 13.100 438.200 13.000 V 10.100 C 438.200 10.045 438.155 10.000 438.100 10.000 H 408.100 C 408.045 10.000 408.000 10.045 408.000 10.100 V 13.000 C 408.000 13.100 408.100 13.000 408.000 13.000 H 378.200 C 378.100 13.000 378.200 13.100 378.200 13.000 V 10.100 C 378.200 10.045 378.155 10.000 378.100 10.000 H 348.100 C 348.045 10.000 348.000 10.045 348.000 10.100 V 13.000 C 348.000 13.100 348.100 13.000 348.000 13.000 H 318.200 C 318.100 13.000 318.200 13.100 318.200 13.000 V 10.100 C 318.200 10.045 318.155 10.000 318.100 10.000 H 288.100 C 288.045 10.000 288.000 10.045 288.000 10.100 V 13.000 C 288.000 13.100 288.100 13.000 288.000 13.000 H 258.200 C 258.100 13.000 258.200 13.100 258.200 13.000 V 10.100 C 258.200 10.045 258.155 10.000 258.100 10.000 H 228.100 C 228.045 10.000 228.000 10.045 228.000 10.100 V 13.000 C 228.000 13.100 228.100 13.000 228.000 13.000 H 198.200 C 198.100 13.000 198.200 13.100 198.200 13.000 V 10.100 C 198.200 10.045 198.155 10.000 198.100 10.000 H 168.100 C 168.045 10.000 168.000 10.045 168.000 10.100 V 13.000 C 168.000 13.100 168.100 13.000 168.000 13.000 H 138.200 C 138.100 13.000 138.200 13.100 138.200 13.000 V 10.100 C 138.200 10.045 138.155 10.000 138.100 10.000 H 108.100 C 108.045 10.000 108.000 10.045 108.000 10.100 V 13.000 C 108.000 13.100 108.100 13.000 108.000 13.000 H 78.200 C 78.100 13.000 78.200 13.100 78.200 13.000 V 10.100 C 78.200 10.045 78.155 10.000 78.100 10.000 H 48.100 C 48.045 10.000 48.000 10.045 48.000 10.100 V 13.000 C 48.000 13.100 48.100 13.000 48.000 13.000 H 13.100 C 13.045 13.000 13.000 13.045 13.000 13.100 V 58.000 C 13.000 58.100 13.100 58.000 13.000 58.000 H 10.100 C 10.045 58.000 10.000 58.045 10.000 58.100 V 88.100 C 10.000 88.155 10.045 88.200 10.100 88.200 H 13.000 C 13.100 88.200 13.000 88.100 13.000 88.200 V 118.000 C 13.000 118.100 13.100 118.000 13.000 118.000 H 10.100 C 10.045 118.000 10.000 118.045 10.000 118.100 V 148.100 C 10.000 148.155 10.045 148.200 10.100 148.200 H 13.000 C 13.100 148.200 13.000 148.100 13.000 148.200 V 193.100 C 13.000 193.155 13.045 193.200 13.100 193.200 Z" stroke="rgb(0,0,0)" stroke-width="0.20" />
</g>
<g id="p-4" style="fill:none;stroke-linecap:round;stroke-linejoin:round;">
  <path d="M 540.800 248.400 H 525.900 C 525.800 248.400 525.900 248.500 525.900 248.400 V 245.600 C 525.900 245.500 525.800 245.600 525.900 245.600 H 555.700 C 555.800 245.600 555.700 245.500 555.700 245.600 V 248.400 C 555.700 248.500 555.800 248.400 555.700 248.400 H 540.800 Z" stroke="rgb(0,0,255)" stroke-width="0.20" />
  <path d="M 600.800 248.400 H 585.900 C 585.800 248.400 585.900 248.500 585.900 248.400 V 245.600 C 585.900 245.500 585.800 245.600 585.900 245.600 H 615.700 C 615.800 245.600 615.700 245.500 615.700 245.600 V 248.400 C 615.700 248.500 615.800 248.400 615.700 248.400 H 600.800 Z" stroke="rgb(0,0,255)" stroke-width="0.20" />
  <path d="M 480.800 251.600 H 660.800 C 660.855 251.600 660.900 251.555 660.900 251.500 V 245.100 C 660.900 245.000 660.800 245.100 660.900 245.100 H 663.800 C 663.855 245.100 663.900 245.055 663.900 245.000 V 232.000 C 663.900 231.945 663.855 231.900 663.800 231.900 H 660.900 C 660.800 231.900 660.900 232.000 660.900 231.900 V 225.500 C 660.900 225.445 660.855 225.400 660.800 225.400 H 480.800 C 480.745 225.400 480.700 225.445 480.700 225.500 V 231.900 C 480.700 232.000 480.800 231.900 480.700 231.900 H 477.800 C 477.745 231.900 477.700 231.945 477.700 232.000 V 245.000 C 477.700 245.055 477.745 245.100 477.800 245.100 H 480.700 C 480.800 245.100 480.700 245.000 480.700 245.100 V 251.500 C 480.700 251.555 480.745 251.600 480.800 251.600 Z" stroke="rgb(0,0,0)" stroke-width="0.20" />
</g>
<g id="p-5" style="fill:none;stroke-linecap:round;stroke-linejoin:round;">
  <path d="M 540.800 220.700 H 525.900 C 525.800 220.700 525.900 220.800 525.900 220.700 V 217.900 C 525.900 217.800 525.800 217.900 525.900 217.900 H 555.700 C 555.800 217.900 555.700 217.800 555.700 217.900 V 220.700 C 555.700 220.800 555.800 220.700 555.700 220.700 H 540.800 Z" stroke="rgb(0,0,255)" stroke-width="0.20" />
  <path d="M 600.800 220.700 H 585.900 C 585.800 220.700 585.900 220.800 585.900 220.700 V 217.900 C 585.900 217.800 585.800 217.900 585.900 217.900 H 615.700 C 615.800 217.900 615.700 217.800 615.700 217.900 V 220.700 C 615.700 220.800 615.800 220.700 615.700 220.700 H 600.800 Z" stroke="rgb(0,0,255)" stroke-width="0.20" />
  <path d="M 480.800 223.900 H 660.800 C 660.855 223.900 660.900 223.855 660.900 223.800 V 217.400 C 660.900 217.300 660.800 217.400 660.900 217.400 H 663.800 C 663.855 217.400 663.900 217.355 663.900 217.300 V 204.300 C 663.900 204.245 663.855 204.200 663.800 204.200 H 660.900 C 660.800 204.200 660.900 204.300 660.900 204.200 V 197.800 C 660.900 197.745 660.855 197.700 660.800 197.700 H 480.800 C 480.745 197.700 480.700 197.745 480.700 197.800 V 204.200 C 480.700 204.300 480.800 204.200 480.700 204.200 H 477.800 C 477.745 204.200 477.700 204.245 477.700 204.300 V 217.300 C 477.700 217.355 477.745 217.400 477.800 217.400 H 480.700 C 480.800 217.400 480.700 217.300 480.700 217.400 V 223.800 C 480.700 223.855 480.745 223.900 480.800 223.900 Z" stroke="rgb(0,0,0)" stroke-width="0.20" />
</g>
</svg>